<?xml version="1.0"?>
<svg xmlns="http://www.w3.org/2000/svg" xmlns:xlink="http://www.w3.org/1999/xlink" version="1.1" id="Capa_1" x="0px" y="0px" viewBox="0 0 486.661 486.661" style="enable-background:new 0 0 486.661 486.661;" xml:space="preserve" width="512px" height="512px" class=""><g><g>
	<path d="M410.401,172.9L345.492,20.188h-80.769L255.143,0H153.298C89.004,0,36.699,52.306,36.699,116.598   s52.306,116.598,116.599,116.598h27.985v172.018c0,33.596,19.133,63.606,49.933,78.32l6.544,3.127l112.526-55.069l43.312-147.464   L449.963,234v-61.1H410.401z M419.963,220.533l-52.727,46.892l-42.009,143.032l-87.171,42.66   c-16.672-10.459-26.774-28.262-26.774-47.902V203.196h-57.985c-47.75,0-86.599-38.848-86.599-86.598S105.546,30,153.298,30h82.876   l9.579,20.188h79.894L390.555,202.9h29.407v17.633H419.963z" data-original="#000000" class="active-path" data-old_color="#000000" fill="#FFFFFF"/>
	<path d="M419.184,425.246l-28.784-8.454l24.417-83.139l28.784,8.454L419.184,425.246z" data-original="#000000" class="active-path" data-old_color="#000000" fill="#FFFFFF"/>
</g></g> </svg>
