<?xml version="1.0"?>
<svg xmlns="http://www.w3.org/2000/svg" xmlns:xlink="http://www.w3.org/1999/xlink" version="1.1" id="Layer_1" x="0px" y="0px" viewBox="0 0 512 512" style="enable-background:new 0 0 512 512;" xml:space="preserve" width="512px" height="512px" class=""><g><g>
	<g>
		<path d="M456.342,211.472h-16.695V16.695C439.647,7.473,432.168,0,422.952,0s-16.695,7.473-16.695,16.695v194.777h-33.39V16.695    C372.866,7.473,365.388,0,356.171,0s-16.695,7.473-16.695,16.695v194.777h-33.39V16.695C306.086,7.473,298.607,0,289.39,0    s-16.695,7.473-16.695,16.695v194.777h-33.39V16.695C239.305,7.473,231.827,0,222.61,0c-9.217,0-16.695,7.473-16.695,16.695    v194.777h-33.39V16.695C172.524,7.473,165.046,0,155.829,0c-9.217,0-16.695,7.473-16.695,16.695v194.777h-33.39V16.695    C105.744,7.473,98.266,0,89.049,0c-9.217,0-16.695,7.473-16.695,16.695v194.777H55.658c-9.217,0-16.695,7.473-16.695,16.695    v39.732c0,38.138,27.826,69.881,64.24,76.036h305.595c36.414-6.154,64.24-37.897,64.24-76.036v-39.732    C473.037,218.945,465.559,211.472,456.342,211.472z" data-original="#000000" class="active-path" data-old_color="#ffffff" fill="#ffffff"/>
	</g>
</g><g>
	<g>
		<path d="M326.916,377.326H184.36c-6.007,23.278-14.924,37.324-10.857,64.107c9.699,63.67,88.058,94.016,138.072,49.368    c17.728-15.831,27.901-38.531,27.901-62.292C339.476,407.768,331.86,395.221,326.916,377.326z M256,445.204    c-9.22,0-16.695-7.475-16.695-16.695c0-9.22,7.475-16.695,16.695-16.695s16.695,7.475,16.695,16.695    C272.695,437.729,265.22,445.204,256,445.204z" data-original="#000000" class="active-path" data-old_color="#ffffff" fill="#ffffff"/>
	</g>
</g></g> </svg>
