<?xml version="1.0"?>
<svg xmlns="http://www.w3.org/2000/svg" xmlns:xlink="http://www.w3.org/1999/xlink" version="1.1" id="Layer_1" x="0px" y="0px" viewBox="0 0 512.001 512.001" style="enable-background:new 0 0 512.001 512.001;" xml:space="preserve" width="512px" height="512px"><g><g>
	<g>
		<path d="M487.101,119.354c0-58.101-47.281-105.37-105.398-105.37c-24.969,0-48.47,8.596-67.366,24.434    C304.484,15.564,281.656,0,256.001,0c-21.12,0-40.857,10.624-52.604,28.02c-1.056-0.049-2.161-0.079-3.287-0.079    c-21.922,0-43.112,7.892-59.666,22.222c-14.947,12.937-25.29,30.358-29.507,49.514C61.511,108.854,24.9,152.398,24.9,203.169    c0,39.849,22.441,76.053,57.686,93.944c-1.205,5.95-1.814,11.918-1.814,17.813c0,50.4,41.004,91.404,91.404,91.404h56.788v98.072    c0,4.197,3.403,7.6,7.6,7.6h32.884c4.198,0,7.6-3.403,7.6-7.6v-98.072h62.757c65.818,0,119.365-53.538,119.365-119.344    c0-27.623-9.446-53.965-26.792-75.218C465.934,193.388,487.101,158.154,487.101,119.354z M264.076,278.036    c-1.425,1.425-2.225,3.358-2.225,5.374V496.8h-0.002h-17.684V116.632c0-4.876,3.966-8.842,8.842-8.842    c4.876,0,8.842,3.967,8.842,8.842v120.271c0,3.074,1.851,5.845,4.692,7.021c2.839,1.177,6.108,0.526,8.283-1.648l54.683-54.683    c1.619,0.777,4.244,2.462,7.143,5.363c2.899,2.899,4.584,5.525,5.363,7.143L264.076,278.036z M443.97,286.983    c0,57.425-46.728,104.144-104.165,104.144h-62.757v-104.57l77.678-77.678c5.874-5.875,2.997-16.344-7.328-26.671    c-10.327-10.327-20.794-13.207-26.673-7.328l-43.676,43.676V116.632c0-13.258-10.786-24.042-24.042-24.042    c-13.258,0-24.043,10.786-24.043,24.042v274.495h-56.788c-42.019,0-76.204-34.185-76.204-76.204    c0-6.608,0.929-13.355,2.762-20.055c0.997-3.647-0.837-7.472-4.306-8.977c-33.004-14.32-54.33-46.791-54.33-82.723    c0-45.031,33.663-83.417,78.303-89.291c3.343-0.44,5.996-3.03,6.518-6.362c5.83-37.301,37.451-64.374,75.188-64.374    c2.4,0,4.819,0.185,6.661,0.347c2.956,0.26,5.799-1.23,7.269-3.812c8.592-15.097,24.671-24.474,41.965-24.474    c22.839,0,42.732,16.21,47.302,38.544c0.568,2.777,2.634,5.006,5.359,5.784c2.727,0.778,5.657-0.024,7.606-2.082    c17.256-18.225,40.495-28.262,65.435-28.262c49.736,0,90.198,40.449,90.198,90.17c0,36.191-21.527,68.761-54.845,82.974    c-2.301,0.982-3.973,3.035-4.467,5.488c-0.495,2.453,0.249,4.994,1.991,6.79C433.533,234.169,443.97,259.872,443.97,286.983z" data-original="#000000" class="active-path" data-old_color="#ffffff" fill="#FFFFFF"/>
	</g>
</g><g>
	<g>
		<path d="M178.762,114.008c-14.324,0-23.686,2.707-29.463,8.518c-6.984,7.025-6.929,16.361-6.877,25.39    c0.004,0.799,0.009,1.605,0.009,2.422c0,20.033,16.298,36.329,36.33,36.329s36.33-16.298,36.33-36.329    C215.091,135.006,215.091,114.008,178.762,114.008z M178.762,171.467c-11.651,0-21.13-9.479-21.13-21.129    c0-0.845-0.005-1.683-0.01-2.511c-0.044-7.466,0.052-12.165,2.456-14.585c1.83-1.84,6.556-4.034,18.684-4.034    c10.178,0,16.532,1.728,18.886,5.134c2.245,3.25,2.245,9.156,2.245,15.996C199.891,161.988,190.413,171.467,178.762,171.467z" data-original="#000000" class="active-path" data-old_color="#ffffff" fill="#FFFFFF"/>
	</g>
</g><g>
	<g>
		<path d="M373.226,267.742c-14.043,0-23.229,2.661-28.908,8.374c-6.875,6.915-6.821,16.073-6.769,24.929    c0.004,0.779,0.009,1.569,0.009,2.365c0,19.668,16.001,35.669,35.668,35.669c19.668,0,35.669-16.002,35.669-35.669    C408.895,288.358,408.895,267.742,373.226,267.742z M373.226,323.879c-11.287,0-20.467-9.183-20.467-20.468    c0-0.827-0.005-1.646-0.01-2.454c-0.043-7.249,0.049-11.81,2.349-14.124c1.763-1.774,6.341-3.89,18.129-3.89    c9.883,0,16.042,1.662,18.306,4.94c2.162,3.129,2.162,8.875,2.162,15.527C393.695,314.697,384.513,323.879,373.226,323.879z" data-original="#000000" class="active-path" data-old_color="#ffffff" fill="#FFFFFF"/>
	</g>
</g><g>
	<g>
		<path d="M358.41,100.967c-14.324,0-23.686,2.707-29.463,8.518c-6.984,7.024-6.929,16.361-6.877,25.389    c0.005,0.798,0.01,1.606,0.01,2.422c0,20.033,16.298,36.329,36.33,36.329c20.033,0,36.328-16.296,36.328-36.328    C394.739,121.966,394.739,100.967,358.41,100.967z M358.41,158.427c-11.651,0-21.13-9.478-21.13-21.129    c0-0.846-0.005-1.684-0.01-2.511c-0.044-7.466,0.052-12.165,2.456-14.584c1.83-1.84,6.556-4.034,18.684-4.034    c10.178,0,16.531,1.728,18.885,5.134c2.245,3.25,2.245,9.157,2.245,15.996C379.539,148.949,370.06,158.427,358.41,158.427z" data-original="#000000" class="active-path" data-old_color="#ffffff" fill="#FFFFFF"/>
	</g>
</g><g>
	<g>
		<path d="M166.488,265.965c-14.324,0-23.686,2.707-29.463,8.518c-6.984,7.026-6.929,16.361-6.877,25.389    c0.004,0.799,0.009,1.605,0.009,2.422c0,20.033,16.298,36.33,36.33,36.33s36.329-16.298,36.329-36.33    C202.817,286.964,202.817,265.965,166.488,265.965z M166.488,323.425c-11.651,0-21.13-9.479-21.13-21.13    c0-0.845-0.005-1.683-0.01-2.511c-0.044-7.466,0.052-12.165,2.456-14.584c1.83-1.84,6.556-4.034,18.684-4.034    c10.178,0,16.532,1.728,18.885,5.134c2.245,3.25,2.245,9.156,2.245,15.996C187.617,313.946,178.139,323.425,166.488,323.425z" data-original="#000000" class="active-path" data-old_color="#ffffff" fill="#FFFFFF"/>
	</g>
</g></g> </svg>
