<?xml version="1.0"?>
<svg xmlns="http://www.w3.org/2000/svg" xmlns:xlink="http://www.w3.org/1999/xlink" version="1.1" id="Capa_1" x="0px" y="0px" viewBox="0 0 485.182 485.182" style="enable-background:new 0 0 485.182 485.182;" xml:space="preserve" width="512px" height="512px" class=""><g><g>
	<g>
		<path d="M260.6,159.003c0,6.627,5.373,12,12,12s12-5.373,12-12c0-5.74,1.07-7.999,2.844-11.741    c2.297-4.847,5.156-10.879,5.156-22.019s-2.858-17.173-5.156-22.021c-1.773-3.743-2.844-6.002-2.844-11.744    s1.07-8.001,2.844-11.744c2.297-4.846,5.156-10.879,5.156-22.019c0-6.627-5.373-12-12-12s-12,5.373-12,12    c0,5.742-1.07,8-2.844,11.743c-2.298,4.848-5.156,10.88-5.156,22.021s2.858,17.173,5.156,22.021    c1.773,3.743,2.844,6.001,2.844,11.743c0,5.74-1.07,7.999-2.844,11.741C263.459,141.831,260.6,147.863,260.6,159.003z" data-original="#000000" class="active-path" data-old_color="#000000" fill="#FFFFFF"/>
		<path d="M325.6,135.003c0,6.627,5.373,12,12,12s12-5.373,12-12c0-5.74,1.07-7.998,2.844-11.74    c2.297-4.847,5.156-10.879,5.156-22.019s-2.858-17.173-5.156-22.02c-1.773-3.743-2.844-6.002-2.844-11.744    c0-5.742,1.07-8.001,2.844-11.744c2.297-4.848,5.156-10.881,5.156-22.021c0-6.627-5.373-12-12-12s-12,5.373-12,12    c0,5.742-1.07,8-2.844,11.743c-2.298,4.848-5.156,10.88-5.156,22.021s2.858,17.173,5.156,22.021    c1.773,3.743,2.844,6.001,2.844,11.743c0,5.74-1.07,7.999-2.844,11.741C328.459,117.831,325.6,123.863,325.6,135.003z" data-original="#000000" class="active-path" data-old_color="#000000" fill="#FFFFFF"/>
		<path d="M378.25,340.577c9.901-16.947,9.207-65.978,9.207-65.978c-0.164-11.549-8.618-16.517-18.787-11.041    c0,0-42.45,22.859-52.798,40.57c-9.168,15.691-8.566,41.256,3.775,53.441l-1.071,1.834    c-16.646-29.398-45.164-53.629-45.164-53.629c-8.802-7.479-19.366-4.766-23.475,6.028c0,0-19.532,51.307-11.384,82.361    c5.678,21.634,28.36,42.503,50.273,41.009l0,0l0,0l1.413,5.384H76.262l238.167-258.715c4.488-4.876,4.174-12.467-0.702-16.956    c-4.874-4.488-12.466-4.175-16.956,0.701L43.64,440.557H11.454C5.128,440.557,0,445.686,0,452.012    c0,6.327,5.128,11.455,11.454,11.455h388.425c2.387,0,4.602-0.73,6.435-1.979l73.32-44.149c5.421-3.263,7.168-10.303,3.905-15.722    c-3.265-5.42-10.304-7.167-15.722-3.904l-71.154,42.845h-47.492l3.521-6.029c0.001,0,0.001,0,0.001,0l0.001-0.003    c20.86,8.592,49.401-5.632,60.961-25.416c10.872-18.608,11.046-61.938,10.181-86.153c-0.368-10.306-10.069-13.047-22.484-6.498    c-1.741,12.649-4.631,24.219-9.288,32.189c-10.814,18.509-33.674,31.942-54.355,31.942c-2.111,0-4.169-0.144-6.178-0.411    c-3.846,17.633-0.08,38.007,12.48,48.962l-6.626,11.415h-36.586l-2.022-7.708l0,0l-0.001-0.003    c20.825-8.676,30.949-38.914,25.133-61.077c-0.068-0.261-0.149-0.526-0.226-0.79l4.633-7.943c2.867,1.025,6.006,1.555,9.394,1.555    C352.822,364.59,370.251,354.267,378.25,340.577z" data-original="#000000" class="active-path" data-old_color="#000000" fill="#FFFFFF"/>
	</g>
</g></g> </svg>
