<?xml version="1.0"?>
<svg xmlns="http://www.w3.org/2000/svg" xmlns:xlink="http://www.w3.org/1999/xlink" version="1.1" id="Layer_1" x="0px" y="0px" viewBox="0 0 511.99 511.99" style="enable-background:new 0 0 511.99 511.99;" xml:space="preserve" width="512px" height="512px" class=""><g><g>
	<g>
		<path d="M213.332,319.994c-28.492,0-55.28-11.094-75.428-31.242c-20.141-20.147-31.242-46.928-31.242-75.42    c0-5.891-4.773-10.672-10.664-10.672s-10.664,4.781-10.664,10.672c0,70.687,57.304,127.998,127.998,127.998    c5.891,0,10.664-4.781,10.664-10.672S219.223,319.994,213.332,319.994z" data-original="#000000" class="active-path" data-old_color="#ffffff" fill="#FFFFFF"/>
	</g>
</g><g>
	<g>
		<path d="M213.332,362.658c-20.171,0-39.726-3.945-58.124-11.727c-17.781-7.516-33.75-18.289-47.468-32.008    c-13.727-13.727-24.492-29.695-32.015-47.476c-7.781-18.398-11.727-37.953-11.727-58.116c0-5.891-4.773-10.672-10.664-10.672    c-5.891,0-10.672,4.781-10.672,10.672c0,94.248,76.413,170.661,170.669,170.661c5.891,0,10.664-4.773,10.664-10.664    C223.996,367.439,219.223,362.658,213.332,362.658z" data-original="#000000" class="active-path" data-old_color="#ffffff" fill="#FFFFFF"/>
	</g>
</g><g>
	<g>
		<path d="M213.332,138.662c-41.242,0-74.67,33.429-74.67,74.67c0,41.234,33.428,74.662,74.67,74.662    c41.234,0,74.662-33.428,74.662-74.662C287.994,172.091,254.566,138.662,213.332,138.662z M213.332,266.659    c-29.414,0-53.335-23.921-53.335-53.327c0-29.414,23.921-53.335,53.335-53.335c29.406,0,53.328,23.921,53.328,53.335    C266.66,242.738,242.738,266.659,213.332,266.659z" data-original="#000000" class="active-path" data-old_color="#ffffff" fill="#FFFFFF"/>
	</g>
</g><g>
	<g>
		<path d="M213.332,202.66c-5.891,0-10.671,4.781-10.671,10.672s4.78,10.664,10.671,10.664c5.891,0,10.664-4.773,10.664-10.664    C223.996,207.441,219.223,202.66,213.332,202.66z" data-original="#000000" class="active-path" data-old_color="#ffffff" fill="#FFFFFF"/>
	</g>
</g><g>
	<g>
		<path d="M511.881,411.297h0.078V202.66c0-17.671-14.326-31.999-31.998-31.999c-3.75,0-7.344,0.648-10.672,1.828v-12.492    c0-17.671-14.328-32-32-32c-4.172,0-8.141,0.805-11.797,2.25c-3.391-12.468-14.125-21.906-27.266-23.375    C361.369,42.999,292.369,0,213.332,0C95.514,0,0,95.514,0,213.332s95.514,213.324,213.332,213.324    c33.765,0,65.693-7.859,94.068-21.828l19.984,48.219c0.047,0.125,0.094,0.25,0.156,0.375l0.125,0.305v-0.016    c14.656,34.265,48.688,58.279,88.311,58.279c53.031,0,96.014-42.99,96.014-96.021C511.99,414.398,511.959,412.844,511.881,411.297    z M288.057,390.243c-23.654,10.007-48.795,15.085-74.725,15.085c-25.93,0-51.069-5.078-74.733-15.085    c-22.859-9.664-43.39-23.515-61.03-41.155c-17.64-17.633-31.492-38.172-41.156-61.031c-10.007-23.655-15.078-48.795-15.078-74.725    s5.07-51.069,15.078-74.733c9.664-22.859,23.516-43.39,41.156-61.03c17.64-17.64,38.171-31.484,61.03-41.156    c23.664-10.007,48.804-15.078,74.733-15.078c25.929,0,51.07,5.07,74.725,15.078c22.859,9.672,43.406,23.516,61.047,41.156    c10.547,10.555,19.734,22.148,27.5,34.664c-6.203,4.234-10.828,10.585-12.859,18.015c-0.547-0.211-1.094-0.414-1.656-0.602    c-29.266-51.913-84.906-86.983-148.756-86.983c-5.891,0-10.671,4.781-10.671,10.672s4.781,10.664,10.671,10.664    c20.164,0,39.718,3.945,58.117,11.727c17.779,7.523,33.748,18.289,47.482,32.015c7.203,7.203,13.594,15.039,19.125,23.429    c-6.781,3.273-12.219,8.859-15.297,15.742c-22.453-36.921-63.061-61.577-109.428-61.577c-5.891,0-10.671,4.773-10.671,10.664    s4.781,10.664,10.671,10.664c28.492,0,55.273,11.102,75.428,31.242c19.453,19.46,30.469,45.108,31.203,72.506v60.405    c-8.641-11.172-24-15.64-37.641-9.938c-12.287,5.133-19.686,17.023-19.686,29.538c0,4.117,0.805,8.297,2.484,12.32l34.107,82.351    C295.572,386.923,291.854,388.641,288.057,390.243z M468.789,468.781c-14.109,14.108-32.859,21.874-52.812,21.874    s-38.701-7.766-52.811-21.874c-8.672-8.672-14.938-19.102-18.5-30.484l-0.281,0.25L284.838,294.58l-0.016-0.031l-0.016-0.031    c-0.547-1.32-0.828-2.703-0.828-4.102c0-4.32,2.578-8.187,6.562-9.851c3.547-1.484,6.641-0.648,8.156-0.023    c1.531,0.625,4.312,2.203,5.797,5.757l36.797,83.671V214.152c0.016-0.273,0.047-0.547,0.047-0.82c0-0.281-0.031-0.555-0.047-0.828    v-52.507c0-5.883,4.781-10.664,10.672-10.664c5.875,0,10.656,4.781,10.656,10.664v138.661h21.344v-84.506    c0.016-0.273,0.031-0.547,0.031-0.82c0-0.281-0.016-0.555-0.031-0.828v-73.842c0-5.883,4.779-10.664,10.654-10.664    c5.891,0,10.672,4.781,10.672,10.664v159.997h21.328V159.997c0-5.883,4.781-10.664,10.672-10.664    c5.875,0,10.672,4.781,10.672,10.664v138.661h21.328V202.66c0-5.882,4.781-10.664,10.672-10.664    c5.875,0,10.656,4.781,10.656,10.664c0,0,0.047,211.746,0.047,213.309C490.664,435.922,482.898,454.68,468.789,468.781z" data-original="#000000" class="active-path" data-old_color="#ffffff" fill="#FFFFFF"/>
	</g>
</g></g> </svg>
