<?xml version="1.0"?>
<svg xmlns="http://www.w3.org/2000/svg" xmlns:xlink="http://www.w3.org/1999/xlink" version="1.1" id="Capa_1" x="0px" y="0px" viewBox="0 0 512 512" style="enable-background:new 0 0 512 512;" xml:space="preserve" width="512px" height="512px" class=""><g><g>
	<g>
		<path d="M353.348,97.999V98c-0.5,16.882-2.353,41.557-8.053,69.042c-6.117,29.496-15.429,56.155-27.676,79.236    c-8.54,16.094-18.53,30.45-29.859,42.986h49.84c11.574-12.361,21.752-26.534,30.425-42.438    c12.596-23.097,22.058-49.835,28.121-79.471c5.641-27.57,7.282-52.365,7.597-69.356H353.348z" data-original="#000000" class="active-path" data-old_color="#000000" fill="#FFFFFF"/>
	</g>
</g><g>
	<g>
		<path d="M194.412,246.356c-12.428-23.091-21.877-49.762-28.084-79.272c-5.785-27.501-7.665-52.191-8.173-69.084h-49.897    c0.316,16.991,1.956,41.786,7.597,69.356c6.063,29.636,15.525,56.374,28.121,79.471c8.673,15.903,18.851,30.076,30.425,42.438    h50.227C213.167,276.748,203.057,262.419,194.412,246.356z" data-original="#000000" class="active-path" data-old_color="#000000" fill="#FFFFFF"/>
	</g>
</g><g>
	<g>
		<rect x="82.88" width="346.24" height="68" data-original="#000000" class="active-path" data-old_color="#000000" fill="#FFFFFF"/>
	</g>
</g><g>
	<g>
		<path d="M329.819,319.265H182.181c-22.055,34.559-26.103,77.951-26.497,101.383h200.632    C355.923,397.216,351.875,353.824,329.819,319.265z" data-original="#000000" class="active-path" data-old_color="#000000" fill="#FFFFFF"/>
	</g>
</g><g>
	<g>
		<path d="M271,98v164.649c25.516-31.463,38.341-70.317,44.77-100.979c5.268-25.126,7.025-48.002,7.533-63.67H271z" data-original="#000000" class="active-path" data-old_color="#000000" fill="#FFFFFF"/>
	</g>
</g><g>
	<g>
		<rect x="129.23" y="450.65" width="253.54" height="61.35" data-original="#000000" class="active-path" data-old_color="#000000" fill="#FFFFFF"/>
	</g>
</g><g>
	<g>
		<path d="M188.202,98c0.515,15.659,2.296,38.524,7.638,63.638c6.498,30.548,19.444,69.232,45.161,100.638V98H188.202z" data-original="#000000" class="active-path" data-old_color="#000000" fill="#FFFFFF"/>
	</g>
</g></g> </svg>
